<svg viewBox="0 0 364.15 182.04" xmlns="http://www.w3.org/2000/svg"><path d="m179.39 93.46-32.67-50.31c10.09-6.55 20.65-9.68 32.67-9.68z" fill="#dee9f5"/><path d="m179.39 93.46-16.54 57.67c-31.85-9.13-50.26-42.36-41.13-74.2 4.15-14.46 12.38-25.59 24.99-33.78l32.67 50.31z" fill="#b3cce7"/><path d="m179.39 93.46 59.41 8.35c-4.61 32.81-34.95 55.67-67.76 51.06-2.95-.42-5.32-.92-8.19-1.74z" fill="#6798cf"/><path d="m179.39 93.46v-59.99c33.13 0 59.99 26.86 59.99 59.99 0 2.98-.17 5.4-.58 8.35z" fill="#266cba"/><path d="m299.82 24.57c-.66-.44-1.24-.73-1.74-.87s-.99-.2-1.47-.2c-.42 0-.86.06-1.32.19s-.84.28-1.14.46-.52.35-.65.49l-.42-.44c.18-.26.43-.55.75-.87s.67-.6 1.07-.85.78-.43 1.14-.54.7-.16 1-.16c.56 0 1.14.09 1.76.28s1.36.56 2.22 1.13c.68.45 1.27.75 1.78.9.5.15.99.22 1.45.22.35 0 .71-.06 1.09-.19.37-.12.74-.3 1.1-.53s.66-.48.9-.75l.43.44c-.17.32-.39.63-.65.95-.27.32-.57.6-.92.86-.35.25-.72.46-1.13.62s-.82.24-1.24.24c-.56 0-1.15-.1-1.79-.29s-1.37-.56-2.2-1.1z" fill="#3c3c3c"/><path d="m313.97 30.49v-7.02c0-.45 0-1.05.03-1.79.02-.74.04-1.3.06-1.7h-.03c-.32.32-.8.75-1.44 1.29l-.66.56-1.14-1.48 3.43-2.69h1.99v12.82h-2.23z" fill="#3c3c3c"/><path d="m329.32 26.34c0 .32-.04.67-.12 1.05-.08.39-.23.76-.45 1.14-.22.37-.5.71-.84.99s-.73.52-1.17.71-.89.31-1.34.37c-.45.07-.86.1-1.22.1-.44 0-.92-.03-1.42-.1s-.97-.16-1.4-.29l.03-1.9c.44.19.89.34 1.34.43.45.1.9.14 1.34.14.32 0 .65-.04 1-.11s.66-.19.92-.36c.26-.16.47-.34.63-.54.16-.19.28-.42.37-.67s.13-.53.13-.82c0-.41-.07-.77-.21-1.09s-.35-.58-.61-.79c-.27-.21-.59-.37-.99-.47s-.82-.15-1.3-.15c-.39 0-.8.04-1.25.13s-.88.2-1.3.33l.1-6.78h7.34v1.7h-5.39l-.1 3.15c.45-.1.94-.15 1.46-.15.48 0 .97.06 1.47.19.5.12.95.32 1.33.59.39.27.69.56.93.88.23.32.41.67.54 1.07.12.4.19.82.19 1.26z" fill="#3c3c3c"/><path d="m337.82 16.92c-.34.86-.7 1.61-1.07 2.26s-.77 1.24-1.17 1.79c-.41.54-.9 1.09-1.47 1.65s-1.19 1.05-1.86 1.5c-.22-.28-.64-.76-1.28-1.43.42-.25.84-.55 1.27-.89s.83-.72 1.21-1.12.73-.83 1.06-1.27c.33-.45.64-.96.94-1.54s.54-1.2.72-1.85l1.77.75-.12.17zm5.98 5.51c-.02.2-.03.39-.03.54 0 1.11-.01 2.09-.04 2.94s-.08 1.59-.15 2.23-.21 1.16-.4 1.58c-.19.4-.48.71-.85.94s-.83.39-1.37.5-1.18.16-1.93.16c-.05-.17-.27-.84-.68-2.01.66.11 1.14.17 1.46.17.51 0 .89-.06 1.15-.19.26-.12.46-.33.6-.63.15-.33.25-.85.31-1.56s.09-1.71.1-3.02h-3.08c-.12 1.71-.71 3.2-1.75 4.47s-2.48 2.22-4.32 2.86c-.29-.37-.74-.89-1.34-1.55.43-.1.91-.25 1.43-.45s1.02-.45 1.49-.77c.47-.31.88-.65 1.22-1.03s.62-.78.85-1.22.39-.86.48-1.26c.1-.4.16-.76.18-1.06h-1.65c-.49 0-.83 0-1.04.02v-1.7c.2.01.55.02 1.04.02h8.33zm-2.07-6.42c.37.86.85 1.73 1.44 2.61.58.88 1.21 1.65 1.89 2.31.67.66 1.32 1.17 1.93 1.52-.17.22-.37.48-.6.78-.23.31-.4.54-.5.71-.61-.4-1.25-.94-1.92-1.62s-1.34-1.5-2.02-2.46-1.29-2-1.84-3.12l1.63-.75z" fill="#3c3c3c"/><path d="m276 70.23v-3.86c3.19-2.68 5.55-4.81 7.09-6.39 1.54-1.57 2.65-2.95 3.32-4.14s1.01-2.34 1.01-3.47c0-.68-.12-1.28-.36-1.8s-.57-.94-.99-1.27-.92-.58-1.52-.74c-.59-.16-1.21-.25-1.85-.25-1.8 0-3.71.57-5.71 1.72l-.46-3.66c.99-.46 2.1-.82 3.33-1.07s2.49-.38 3.76-.38c1.14 0 2.23.15 3.25.46s1.91.76 2.66 1.35 1.33 1.34 1.75 2.24.63 1.9.63 3c0 .79-.11 1.57-.33 2.34s-.58 1.57-1.07 2.41-1.15 1.73-1.96 2.69-1.8 2-2.97 3.12c-1.58 1.54-3.33 2.98-5.25 4.32v.07c2.99-.09 5.47-.13 7.42-.13h4.69v3.43h-16.43z" fill="#3c3c3c"/><path d="m299.46 70.23 9.5-21.42h-12.14v-3.46h16.47v3.53l-9.14 21.35z" fill="#3c3c3c"/><path d="m318.01 70.23v-4.59h4.52v4.59z" fill="#3c3c3c"/><path d="m342.95 63.46c0 .79-.15 1.6-.46 2.43s-.84 1.59-1.6 2.29-1.63 1.24-2.61 1.6-1.89.6-2.74.71-1.61.17-2.29.17c-1.03 0-2.12-.09-3.27-.26-1.14-.18-2.2-.42-3.17-.73l.23-3.66c2.2.9 4.2 1.35 6.01 1.35.73 0 1.44-.08 2.15-.25.7-.17 1.31-.42 1.83-.78.52-.35.91-.8 1.19-1.34.27-.54.41-1.16.41-1.86 0-1.39-.61-2.43-1.83-3.12s-2.99-1.04-5.3-1.04l-1.16.03v-3.27l1.09.03c1.1 0 2.09-.08 2.97-.25s1.62-.41 2.23-.73c.6-.32 1.07-.73 1.39-1.22.32-.5.48-1.07.48-1.73 0-.44-.08-.87-.25-1.3s-.45-.82-.84-1.17c-.4-.35-.92-.64-1.57-.86s-1.42-.33-2.33-.33-1.85.11-2.84.33-1.94.53-2.84.92l-.26-3.43c.92-.37 1.94-.65 3.05-.83s2.23-.26 3.35-.26c1.32 0 2.52.15 3.61.45s2.01.73 2.76 1.29 1.32 1.25 1.72 2.08.59 1.73.59 2.72-.23 1.88-.68 2.67-1.13 1.46-2.05 2.01c-.91.55-2.04.9-3.38 1.06v.1c.44.04.93.13 1.48.26s1.1.34 1.65.61c.55.28 1.07.65 1.57 1.12.49.47.9 1.08 1.22 1.81.32.74.48 1.52.48 2.36z" fill="#3c3c3c"/><path d="m350.75 54.83c.69 0 1.29.13 1.81.4.52.26.92.62 1.19 1.08s.44.89.5 1.32c.07.42.1.78.1 1.07 0 1.2-.33 2.16-.99 2.87s-1.54 1.07-2.65 1.07c-.54 0-1.04-.09-1.49-.28-.46-.18-.83-.43-1.11-.72-.28-.3-.5-.61-.65-.95s-.26-.68-.32-1.03-.09-.66-.09-.94c0-.77.13-1.43.4-1.99.26-.56.62-.98 1.06-1.27.44-.28.86-.46 1.26-.52.4-.07.73-.1.99-.1zm-.04 1.5c-.51 0-.92.21-1.22.61s-.45 1-.45 1.78.15 1.37.45 1.78.7.61 1.22.61c.12 0 .26-.02.44-.06.17-.04.34-.13.49-.26.16-.13.28-.28.38-.45.09-.16.17-.38.25-.65.07-.27.11-.6.11-1 0-.37-.05-.75-.15-1.13s-.28-.69-.55-.91-.59-.34-.96-.34zm-.61 14.14 9.5-16.2h1.6l-9.5 16.2zm10.41-.2c-.54 0-1.04-.09-1.49-.28-.46-.19-.84-.45-1.17-.79-.32-.34-.57-.76-.74-1.25s-.26-1.03-.26-1.62c0-.78.14-1.46.42-2.05s.7-1.04 1.26-1.36 1.23-.48 2.01-.48c.54 0 1.04.09 1.49.26.46.17.84.42 1.15.74s.55.73.72 1.22.26 1.04.26 1.64-.09 1.14-.26 1.62c-.17.49-.42.91-.73 1.26-.32.35-.7.62-1.16.8-.46.19-.95.28-1.49.28zm0-1.5c.5 0 .9-.21 1.21-.63.3-.42.46-1.02.46-1.8 0-.49-.06-.9-.18-1.25s-.3-.62-.55-.82-.56-.31-.93-.31c-.53 0-.94.21-1.23.61-.29.41-.44 1.01-.44 1.8s.15 1.37.45 1.78.7.61 1.22.61z" fill="#3c3c3c"/><path d="m256.7 47.92h-24.65l-23.49 23.49" fill="none" stroke="#3c3c3c" stroke-miterlimit="10" stroke-width="2"/><g fill="#3c3c3c"><path d="m297.35 135.95c-.66-.44-1.24-.73-1.74-.87s-.99-.2-1.47-.2c-.42 0-.86.06-1.32.19-.46.12-.84.28-1.14.46s-.52.35-.65.49l-.42-.44c.18-.26.43-.55.75-.87s.67-.6 1.07-.85.78-.43 1.14-.54.7-.16 1-.16c.56 0 1.14.09 1.76.28s1.36.56 2.22 1.13c.68.45 1.27.75 1.78.9.5.15.99.22 1.45.22.35 0 .71-.06 1.09-.19.37-.12.74-.3 1.1-.53s.66-.48.9-.75l.43.44c-.17.32-.39.63-.65.95-.27.32-.57.6-.92.86-.35.25-.72.46-1.13.62s-.82.24-1.24.24c-.56 0-1.15-.1-1.79-.29s-1.37-.56-2.2-1.11z"/><path d="m315.84 138.39c0 .41-.08.82-.24 1.25-.16.42-.43.82-.82 1.18s-.84.64-1.34.82c-.5.19-.97.31-1.41.37s-.83.08-1.18.08c-.53 0-1.09-.05-1.68-.14s-1.13-.21-1.63-.37l.12-1.89c1.13.46 2.16.7 3.09.7.37 0 .74-.04 1.1-.13.36-.08.68-.22.94-.4.27-.18.47-.41.61-.69s.21-.6.21-.96c0-.71-.31-1.25-.94-1.61s-1.54-.54-2.73-.54l-.59.02v-1.68l.56.02c.57 0 1.08-.04 1.53-.13.45-.08.84-.21 1.15-.37s.55-.37.71-.63.25-.55.25-.89c0-.23-.04-.45-.13-.67s-.23-.42-.43-.6-.47-.33-.81-.44c-.33-.11-.73-.17-1.2-.17s-.95.06-1.46.17-1 .27-1.46.48l-.14-1.77c.48-.19 1-.33 1.57-.42s1.15-.14 1.73-.14c.68 0 1.3.08 1.86.23s1.03.37 1.42.66.68.65.88 1.07.31.89.31 1.4-.12.97-.35 1.38-.58.75-1.05 1.04c-.47.28-1.05.46-1.74.54v.05c.23.02.48.07.76.14s.57.17.85.31.55.33.81.58c.26.24.46.55.63.93.16.38.25.79.25 1.22z"/><path d="m327.15 135.5c0 1.37-.16 2.56-.49 3.56s-.83 1.76-1.51 2.28-1.51.77-2.5.77-1.82-.25-2.51-.76-1.2-1.27-1.53-2.28-.5-2.2-.5-3.57c0-2.2.38-3.86 1.15-4.98s1.92-1.68 3.46-1.68c1.46 0 2.57.56 3.32 1.69s1.12 2.79 1.12 4.97zm-2.23-.04c0-1.61-.2-2.83-.59-3.67s-.95-1.26-1.69-1.26-1.3.42-1.7 1.25-.59 2.04-.59 3.61.2 2.89.59 3.73c.4.84.97 1.27 1.72 1.27.26 0 .51-.06.74-.18s.44-.29.61-.53c.18-.23.33-.52.46-.88.13-.35.24-.8.32-1.34s.13-1.21.13-2.01z"/><path d="m335.34 128.3c-.34.86-.7 1.61-1.07 2.26s-.77 1.24-1.17 1.79-.9 1.09-1.47 1.65-1.19 1.05-1.86 1.5c-.22-.28-.64-.76-1.27-1.43.42-.25.84-.55 1.27-.89.42-.35.83-.72 1.21-1.12s.73-.83 1.06-1.27c.33-.45.64-.96.94-1.54s.54-1.2.72-1.85l1.77.75-.12.17zm5.99 5.51c-.02.2-.03.39-.03.54 0 1.11-.01 2.09-.04 2.94s-.08 1.59-.15 2.23c-.07.63-.21 1.16-.4 1.58-.19.4-.48.71-.85.93s-.83.39-1.37.5-1.18.16-1.93.16c-.05-.17-.27-.84-.68-2.01.66.11 1.14.17 1.46.17.51 0 .89-.06 1.15-.19s.46-.33.6-.63c.15-.33.25-.85.31-1.56s.09-1.71.1-3.02h-3.08c-.12 1.71-.71 3.2-1.75 4.47s-2.48 2.22-4.32 2.86c-.29-.37-.74-.89-1.34-1.55.43-.1.91-.25 1.43-.45s1.02-.45 1.49-.76.88-.65 1.22-1.03c.34-.37.62-.78.85-1.22s.39-.86.48-1.26c.1-.4.16-.76.18-1.06h-1.65c-.49 0-.83 0-1.04.02v-1.7c.2.01.55.02 1.04.02h8.33zm-2.08-6.42c.37.86.85 1.73 1.44 2.61.58.88 1.21 1.65 1.89 2.31.67.66 1.32 1.17 1.93 1.52-.17.22-.37.48-.6.78-.23.31-.4.54-.5.71-.61-.4-1.25-.93-1.92-1.62-.67-.68-1.34-1.5-2.02-2.46s-1.29-2-1.84-3.12l1.63-.75z"/><path d="m273.52 181.61v-3.86c3.19-2.68 5.55-4.81 7.1-6.39 1.54-1.57 2.65-2.95 3.32-4.14s1.01-2.34 1.01-3.47c0-.68-.12-1.28-.36-1.8s-.57-.94-.99-1.27-.92-.58-1.52-.74c-.59-.16-1.21-.25-1.85-.25-1.8 0-3.71.57-5.71 1.72l-.46-3.66c.99-.46 2.1-.82 3.33-1.07s2.49-.38 3.76-.38c1.14 0 2.23.15 3.25.46s1.91.76 2.66 1.35 1.33 1.34 1.75 2.24.63 1.9.63 3c0 .79-.11 1.57-.33 2.34s-.58 1.57-1.07 2.41-1.15 1.73-1.96 2.69-1.8 2-2.97 3.12c-1.58 1.54-3.33 2.98-5.25 4.32v.07c2.99-.09 5.47-.13 7.42-.13h4.69v3.43h-16.43z"/><path d="m296.99 181.61 9.5-21.42h-12.14v-3.46h16.47v3.53l-9.14 21.35z"/><path d="m315.53 181.61v-4.59h4.52v4.59z"/><path d="m340.48 174.84c0 .79-.15 1.6-.46 2.43s-.84 1.59-1.6 2.29-1.63 1.24-2.61 1.6-1.89.6-2.74.71-1.61.17-2.29.17c-1.03 0-2.12-.09-3.27-.26-1.14-.18-2.2-.42-3.17-.73l.23-3.66c2.2.9 4.2 1.35 6.01 1.35.73 0 1.44-.08 2.15-.25.7-.17 1.31-.42 1.83-.78.52-.35.91-.8 1.19-1.34.27-.54.41-1.16.41-1.86 0-1.39-.61-2.43-1.83-3.12s-2.99-1.04-5.3-1.04l-1.15.03v-3.27l1.09.03c1.1 0 2.09-.08 2.97-.25s1.62-.41 2.23-.73c.6-.32 1.07-.73 1.39-1.22.32-.5.48-1.07.48-1.73 0-.44-.08-.87-.25-1.3s-.45-.82-.84-1.17c-.4-.35-.92-.64-1.57-.86s-1.42-.33-2.33-.33-1.85.11-2.84.33-1.94.53-2.84.92l-.26-3.43c.92-.37 1.94-.65 3.05-.83s2.23-.26 3.35-.26c1.32 0 2.52.15 3.61.45s2.01.73 2.76 1.29 1.32 1.25 1.72 2.08.59 1.73.59 2.72-.23 1.88-.68 2.67-1.13 1.46-2.05 2.01c-.91.55-2.04.9-3.38 1.06v.1c.44.04.93.13 1.48.26s1.1.34 1.65.61c.55.28 1.07.65 1.57 1.12.49.47.9 1.08 1.22 1.81.32.74.48 1.52.48 2.36z"/><path d="m348.27 166.21c.69 0 1.29.13 1.81.4.52.26.92.62 1.19 1.08s.44.89.5 1.32c.07.42.1.78.1 1.07 0 1.2-.33 2.16-.99 2.87s-1.54 1.07-2.65 1.07c-.54 0-1.04-.09-1.49-.28-.46-.18-.82-.43-1.11-.72-.28-.3-.5-.61-.65-.95s-.26-.68-.32-1.03-.09-.66-.09-.94c0-.77.13-1.43.4-1.99.26-.56.62-.98 1.06-1.27.44-.28.86-.46 1.26-.52.4-.07.73-.1.99-.1zm-.04 1.5c-.51 0-.92.21-1.22.61-.3.41-.45 1-.45 1.78s.15 1.37.45 1.78.7.61 1.22.61c.12 0 .26-.02.44-.06.17-.04.34-.13.49-.26.16-.13.28-.28.38-.45.09-.16.17-.38.25-.65.07-.27.11-.6.11-1 0-.37-.05-.75-.15-1.13s-.28-.69-.55-.91-.59-.34-.96-.34zm-.61 14.14 9.5-16.2h1.6l-9.5 16.2zm10.42-.2c-.54 0-1.04-.09-1.49-.28-.46-.19-.84-.45-1.17-.79-.32-.34-.57-.76-.74-1.25s-.26-1.03-.26-1.62c0-.78.14-1.46.42-2.05s.7-1.04 1.26-1.36 1.23-.48 2.01-.48c.54 0 1.04.09 1.49.26s.84.42 1.15.74.55.73.72 1.22.26 1.04.26 1.64-.09 1.14-.26 1.62c-.17.49-.42.91-.73 1.26-.32.35-.7.62-1.16.8s-.95.28-1.49.28zm0-1.5c.5 0 .9-.21 1.21-.63.3-.42.46-1.02.46-1.8 0-.49-.06-.9-.18-1.25-.12-.34-.3-.62-.55-.82s-.56-.31-.93-.31c-.53 0-.94.21-1.23.61-.29.41-.44 1.01-.44 1.8s.15 1.37.45 1.78.7.61 1.22.61z"/><path d="m20.72 104.44c-.66-.44-1.24-.73-1.74-.87s-.99-.2-1.47-.2c-.42 0-.86.06-1.32.19s-.84.28-1.14.46-.52.35-.65.49l-.42-.44c.18-.26.43-.55.75-.87s.67-.6 1.07-.85.78-.43 1.14-.54.7-.16 1-.16c.56 0 1.14.09 1.76.28s1.36.56 2.22 1.13c.68.45 1.27.75 1.78.9.5.15.99.22 1.45.22.35 0 .71-.06 1.09-.19.37-.12.74-.3 1.1-.53s.66-.48.9-.75l.43.44c-.17.32-.39.63-.65.95-.27.32-.57.6-.92.86-.35.25-.72.46-1.13.62s-.82.24-1.24.24c-.56 0-1.15-.1-1.79-.29s-1.37-.56-2.2-1.1z"/><path d="m34.87 110.36v-7.02c0-.45 0-1.05.03-1.79.02-.74.04-1.3.06-1.7h-.03c-.32.32-.8.75-1.44 1.29l-.66.56-1.14-1.48 3.43-2.69h1.99v12.82h-2.23z"/><path d="m46.8 96.98-.03.88v10.13l.03.87h-1.56v-.76h-1.7v1.51h-1.6c.02-.36.03-.67.03-.92v-10.79c0-.25-.01-.56-.03-.92zm-1.56 1.53h-1.7v3.13h1.7zm-1.7 8.06h1.7v-3.43h-1.7zm12.15-5.61c.52 0 .89-.01 1.1-.03v1.63c-.22-.02-.58-.03-1.1-.03h-7.31c-.52 0-.89.01-1.1.03v-1.63c.22.02.58.03 1.1.03h2.69v-1.84h-2.28c-.46 0-.79 0-.99.02v-1.5c.19.01.52.02.99.02h2.28v-1.24c0-.16-.01-.34-.03-.54.2 0 .51 0 .91.03.4.02.69.03.86.04-.02.18-.03.34-.03.48v1.24h2.28c.46 0 .79 0 .99-.02v1.5c-.19-.01-.52-.02-.99-.02h-2.28v1.84h2.92zm-.7 3.33h.7c.51 0 .87-.01 1.09-.03v1.6c-.2-.02-.57-.03-1.09-.03h-.7v2.55l.03 1.19c0 .28-.06.52-.17.71s-.28.35-.49.49c-.22.14-.56.27-1.05.37-.48.11-1.15.16-2 .16-.03-.09-.32-.66-.85-1.72.56.08 1.09.12 1.61.12.44 0 .75-.04.93-.14.18-.09.27-.23.27-.43v-3.31h-4.86c-.51 0-.87.01-1.09.03v-1.6c.22.02.58.03 1.09.03h4.86v-1.02c0-.15-.01-.32-.03-.53.2 0 .51 0 .91.03.4.02.69.03.86.04-.02.18-.03.33-.03.46v1.02zm-4.28 4.9c-.29-.32-.69-.67-1.18-1.06s-.93-.71-1.32-.96l1.12-1.17c.39.22.82.49 1.32.83.49.34.94.69 1.33 1.05z"/><path d="m60.86 102.32v7.87l.03 1.05h-1.77l.03-1.05v-13.19c0-.15-.01-.32-.03-.53h6.31l-.02.6v4.66l.02.59zm2.89-4.49h-2.89v.94h2.89zm-2.89 3.13h2.89v-1h-2.89zm8.31 2.58-.02.59v4.88l.02.59h-4.56v.9h-1.63c.02-.23.03-.44.03-.63v-5.71c0-.17-.01-.38-.03-.63h6.19zm-1.61 1.33h-2.94v1.05h2.94zm-2.94 3.42h2.94v-1.11h-2.94zm8.46-10.92v10.93l.03 1.31c0 1.1-1.04 1.65-3.13 1.65-.01-.03-.04-.1-.08-.2s-.16-.37-.37-.81-.32-.69-.34-.73c.14.02.33.05.58.07s.47.03.66.03c.34 0 .58-.04.72-.12s.21-.2.21-.37v-6.82h-4.57c.02-.23.03-.42.03-.59v-4.66c0-.17-.01-.37-.03-.6h6.31l-.03.9zm-1.7.46h-2.87v.94h2.87zm-2.87 3.13h2.87v-1h-2.87z"/><path d="m16.14 143.33c0 .79-.15 1.6-.46 2.43s-.84 1.59-1.6 2.29-1.63 1.24-2.61 1.6-1.89.6-2.74.71-1.61.17-2.29.17c-1.03 0-2.12-.09-3.27-.26-1.14-.18-2.2-.42-3.17-.73l.23-3.66c2.2.9 4.2 1.35 6.01 1.35.73 0 1.44-.08 2.15-.25.7-.17 1.31-.42 1.83-.78.52-.35.91-.8 1.19-1.34.27-.54.41-1.16.41-1.86 0-1.39-.61-2.43-1.83-3.12s-2.99-1.04-5.3-1.04l-1.15.03v-3.27l1.09.03c1.1 0 2.09-.08 2.97-.25s1.62-.41 2.23-.73c.6-.32 1.07-.73 1.39-1.22.32-.5.48-1.07.48-1.73 0-.44-.08-.87-.25-1.3s-.45-.82-.84-1.17c-.4-.35-.92-.64-1.57-.86s-1.42-.33-2.33-.33-1.85.11-2.84.33-1.94.53-2.84.92l-.26-3.43c.92-.37 1.94-.65 3.05-.83s2.23-.26 3.35-.26c1.32 0 2.52.15 3.61.45s2.01.73 2.76 1.29 1.32 1.25 1.72 2.08.59 1.73.59 2.72-.23 1.88-.68 2.67-1.13 1.46-2.05 2.01c-.91.55-2.04.9-3.38 1.06v.1c.44.04.93.13 1.48.26s1.1.34 1.65.61c.55.28 1.07.65 1.57 1.12.49.47.9 1.08 1.22 1.81.32.74.48 1.52.48 2.36z"/><path d="m38.28 141.98c0 1.19-.2 2.3-.59 3.35-.4 1.05-.97 1.96-1.73 2.74s-1.68 1.39-2.77 1.81-2.28.64-3.58.64c-2.9 0-5.11-1.03-6.63-3.09s-2.28-5.04-2.28-8.96c0-2.16.24-4.09.73-5.79.48-1.7 1.19-3.15 2.13-4.32.93-1.18 2.08-2.07 3.43-2.67s2.89-.91 4.6-.91c.86 0 1.74.07 2.64.2s1.72.31 2.44.53l-.43 3.43c-1.47-.59-2.95-.89-4.42-.89-2.16 0-3.85.78-5.08 2.33s-1.89 3.73-1.98 6.55h.1c.29-.42.7-.85 1.25-1.29s1.25-.8 2.1-1.09 1.69-.43 2.52-.43c1.12 0 2.15.19 3.09.58.93.39 1.74.93 2.41 1.63s1.18 1.54 1.53 2.51.53 2.01.53 3.14zm-4.19.33c0-.68-.09-1.34-.26-1.98-.18-.64-.43-1.18-.78-1.63-.34-.45-.79-.8-1.35-1.06-.56-.25-1.2-.38-1.93-.38-1.21 0-2.27.48-3.18 1.44s-1.37 2.1-1.37 3.42c0 .73.11 1.42.33 2.08s.53 1.23.94 1.72c.41.48.89.86 1.44 1.14s1.13.41 1.75.41c.51 0 1.02-.09 1.53-.26.52-.18 1.01-.5 1.48-.97s.83-1.08 1.06-1.81c.23-.74.35-1.44.35-2.1z"/><path d="m42.01 150.1v-4.59h4.52v4.59z"/><path d="m61.31 150.1v-5.28h-11.65v-3.46l10.23-16.14h5.44v16.24h3.37v3.37h-3.37v5.28h-4.03zm.04-14.23c0-2.77.04-5.35.13-7.72h-.07c-.33.7-.81 1.62-1.45 2.76-.64 1.13-1.21 2.11-1.72 2.92l-4.69 7.62h7.79v-5.58z"/><path d="m74.75 134.7c.69 0 1.29.13 1.81.4.52.26.92.62 1.19 1.08s.44.89.5 1.32c.07.42.1.78.1 1.07 0 1.2-.33 2.16-.99 2.87s-1.54 1.07-2.65 1.07c-.54 0-1.04-.09-1.49-.28-.46-.18-.83-.43-1.11-.72-.28-.3-.5-.61-.65-.95s-.26-.68-.32-1.03-.09-.66-.09-.94c0-.77.13-1.43.4-1.99.26-.56.62-.98 1.06-1.27.44-.28.86-.46 1.26-.52.4-.07.73-.1.99-.1zm-.04 1.5c-.51 0-.92.21-1.22.61s-.45 1-.45 1.78.15 1.37.45 1.78.7.61 1.22.61c.12 0 .26-.02.44-.06.17-.04.34-.13.49-.26.16-.13.28-.28.38-.45.09-.16.17-.38.25-.65.07-.27.11-.6.11-1 0-.37-.05-.75-.15-1.13s-.28-.69-.55-.91-.59-.34-.96-.34zm-.61 14.14 9.5-16.2h1.6l-9.5 16.2zm10.41-.2c-.54 0-1.04-.09-1.49-.28-.46-.19-.84-.45-1.17-.79-.32-.34-.57-.76-.74-1.25s-.26-1.03-.26-1.62c0-.78.14-1.46.42-2.05s.7-1.04 1.26-1.36 1.23-.48 2.01-.48c.54 0 1.04.09 1.49.26.46.17.84.42 1.15.74s.55.73.72 1.22.26 1.04.26 1.64-.09 1.14-.26 1.62c-.17.49-.42.91-.73 1.26-.32.35-.7.62-1.16.8-.46.19-.95.28-1.49.28zm0-1.5c.5 0 .9-.21 1.21-.63.3-.42.46-1.02.46-1.8 0-.49-.06-.9-.18-1.25s-.3-.62-.55-.82-.56-.31-.93-.31c-.53 0-.94.21-1.23.61-.29.41-.44 1.01-.44 1.8s.15 1.37.45 1.78.7.61 1.22.61z"/></g><path d="m255.71 164.47h-24.65l-23.49-23.49" fill="none" stroke="#3c3c3c" stroke-miterlimit="10" stroke-width="2"/><path d="m96.06 126.03h24.65l23.49-23.49" fill="none" stroke="#3c3c3c" stroke-miterlimit="10" stroke-width="2"/><path d="m43.85 8.57c-.66-.44-1.24-.73-1.74-.87s-.99-.2-1.47-.2c-.42 0-.86.06-1.32.19s-.84.28-1.14.46-.52.35-.65.49l-.42-.44c.18-.26.43-.55.75-.87s.67-.6 1.07-.85.78-.43 1.14-.54.7-.16 1-.16c.56 0 1.14.09 1.76.28s1.36.56 2.22 1.13c.68.45 1.27.75 1.78.9.5.15.99.22 1.45.22.35 0 .71-.06 1.09-.19.37-.12.74-.3 1.1-.53s.66-.48.9-.75l.42.44c-.17.32-.39.63-.65.95-.27.32-.57.6-.92.86-.35.25-.72.46-1.13.62s-.82.24-1.24.24c-.56 0-1.15-.1-1.79-.29s-1.37-.56-2.2-1.1z" fill="#3c3c3c"/><path d="m54.04 14.48v-1.99c1.64-1.38 2.86-2.48 3.65-3.29s1.36-1.52 1.71-2.13.52-1.21.52-1.78c0-.35-.06-.66-.19-.93-.12-.27-.29-.48-.51-.65s-.48-.3-.78-.38c-.31-.08-.62-.13-.95-.13-.93 0-1.91.29-2.94.88l-.24-1.89c.51-.24 1.08-.42 1.72-.55.63-.13 1.28-.2 1.94-.2.59 0 1.15.08 1.67.24.53.16.98.39 1.37.7s.69.69.9 1.16c.22.46.32.98.32 1.55 0 .41-.06.81-.17 1.21s-.3.81-.55 1.24c-.26.43-.59.89-1.01 1.39-.42.49-.93 1.03-1.53 1.61-.82.79-1.72 1.54-2.7 2.23v.03c1.54-.04 2.82-.07 3.83-.07h2.41v1.77h-8.47z" fill="#3c3c3c"/><path d="m69.93 1.1-.03.88v10.13l.03.87h-1.56v-.76h-1.7v1.51h-1.6c.02-.36.03-.67.03-.92v-10.79c0-.25-.01-.56-.03-.92zm-1.56 1.53h-1.7v3.13h1.7zm-1.7 8.06h1.7v-3.43h-1.7zm12.15-5.61c.52 0 .89-.01 1.11-.03v1.63c-.22-.02-.58-.03-1.11-.03h-7.31c-.52 0-.89.01-1.1.03v-1.63c.22.02.58.03 1.1.03h2.69v-1.84h-2.28c-.46 0-.79 0-.99.02v-1.5c.19.01.52.02.99.02h2.28v-1.24c0-.16-.01-.34-.03-.54.2 0 .51 0 .91.03.4.02.69.03.86.04-.02.18-.03.34-.03.48v1.24h2.28c.46 0 .79 0 .99-.02v1.5c-.19-.01-.52-.02-.99-.02h-2.28v1.84h2.92zm-.7 3.34h.7c.51 0 .87-.01 1.09-.03v1.6c-.2-.02-.57-.03-1.09-.03h-.7v2.55l.03 1.19c0 .28-.06.52-.17.71s-.28.35-.49.49c-.22.14-.56.27-1.05.37-.48.11-1.15.16-2 .16-.03-.09-.32-.66-.85-1.72.56.08 1.09.12 1.61.12.44 0 .75-.04.93-.14.18-.09.27-.23.27-.43v-3.31h-4.86c-.51 0-.87.01-1.09.03v-1.6c.22.02.58.03 1.09.03h4.86v-1.02c0-.15-.01-.32-.03-.53.2 0 .51 0 .91.03.4.02.69.03.86.04-.02.18-.03.33-.03.46v1.02zm-4.28 4.89c-.29-.32-.69-.67-1.18-1.06s-.93-.71-1.32-.96l1.12-1.17c.39.22.82.49 1.32.83.49.34.94.69 1.33 1.05z" fill="#3c3c3c"/><path d="m83.99 6.44v7.87l.03 1.05h-1.77l.03-1.05v-13.19c0-.15-.01-.32-.03-.53h6.31l-.02.6v4.66l.02.59zm2.89-4.48h-2.89v.94h2.89zm-2.89 3.12h2.89v-1h-2.89zm8.31 2.59-.02.59v4.88l.02.59h-4.56v.9h-1.63c.02-.23.03-.44.03-.63v-5.71c0-.17-.01-.38-.03-.63h6.19zm-1.61 1.32h-2.94v1.05h2.94zm-2.94 3.42h2.94v-1.11h-2.94zm8.46-10.91v10.93l.03 1.31c0 1.1-1.04 1.65-3.13 1.65-.01-.03-.04-.1-.08-.2s-.16-.37-.37-.81c-.2-.44-.32-.69-.34-.73.14.02.33.05.58.07s.47.03.66.03c.34 0 .58-.04.72-.12s.21-.2.21-.37v-6.82h-4.57c.02-.23.03-.42.03-.59v-4.66c0-.17-.01-.37-.03-.6h6.31l-.03.9zm-1.7.46h-2.87v.94h2.87zm-2.87 3.12h2.87v-1h-2.87z" fill="#3c3c3c"/><path d="m50.7 40.82c0 2.18-.24 4.12-.73 5.84-.48 1.72-1.19 3.17-2.11 4.36s-2.07 2.09-3.43 2.71-2.9.92-4.62.92c-.97 0-1.93-.08-2.89-.23s-1.8-.36-2.52-.63l.4-3.47c.73.33 1.51.59 2.34.78.84.19 1.64.28 2.41.28 1.1 0 2.08-.21 2.95-.63s1.6-1.02 2.19-1.81 1.05-1.75 1.37-2.89c.32-1.13.49-2.38.51-3.75h-.07c-.29.44-.7.88-1.25 1.32s-1.24.8-2.08 1.07c-.84.28-1.67.41-2.51.41-1.1 0-2.12-.18-3.05-.54-.94-.36-1.73-.89-2.38-1.57s-1.15-1.5-1.5-2.44c-.35-.95-.53-1.97-.53-3.07s.16-2.08.48-3.09c.32-1 .85-1.94 1.6-2.8.75-.87 1.69-1.53 2.82-2 1.13-.46 2.36-.69 3.68-.69 2.93 0 5.14 1.01 6.65 3.02s2.26 4.98 2.26 8.89zm-4.55-3.59c0-.66-.12-1.36-.35-2.11s-.59-1.37-1.07-1.86c-.48-.5-.97-.83-1.47-1.01s-.96-.26-1.4-.26c-.51 0-1.02.09-1.53.26-.52.18-1.01.5-1.48.97s-.83 1.08-1.06 1.81c-.23.74-.35 1.44-.35 2.1s.09 1.27.26 1.88c.18.62.45 1.15.83 1.6.37.45.84.79 1.4 1.02s1.19.35 1.9.35c.62 0 1.19-.12 1.73-.35s1-.56 1.39-.99c.38-.43.68-.94.89-1.53s.31-1.22.31-1.88z" fill="#3c3c3c"/><path d="m54.66 54.22v-4.59h4.52v4.59z" fill="#3c3c3c"/><path d="m71.16 54.22v-13.63c0-.88.02-2.03.05-3.46s.07-2.53.12-3.3h-.07c-.62.62-1.55 1.45-2.81 2.51l-1.29 1.09-2.21-2.87 6.67-5.21h3.86v24.88h-4.32z" fill="#3c3c3c"/><path d="m87.4 38.82c.69 0 1.29.13 1.81.4.52.26.92.62 1.19 1.08s.44.89.5 1.32c.07.42.1.78.1 1.07 0 1.2-.33 2.16-.99 2.87s-1.54 1.07-2.65 1.07c-.54 0-1.04-.09-1.49-.28-.46-.18-.83-.43-1.11-.72-.28-.3-.5-.61-.65-.95s-.26-.68-.32-1.03-.09-.66-.09-.94c0-.77.13-1.43.4-1.99.26-.56.62-.98 1.06-1.27.44-.28.86-.46 1.26-.52.4-.07.73-.1.99-.1zm-.04 1.51c-.51 0-.92.21-1.22.61s-.45 1-.45 1.78.15 1.37.45 1.78.7.61 1.22.61c.12 0 .26-.02.44-.06.17-.04.34-.13.49-.26s.28-.28.38-.45c.09-.16.17-.38.25-.65.07-.27.11-.6.11-1 0-.37-.05-.75-.15-1.13s-.28-.69-.55-.91-.59-.34-.96-.34zm-.61 14.13 9.5-16.2h1.6l-9.5 16.2zm10.42-.19c-.54 0-1.04-.09-1.49-.28s-.84-.45-1.17-.79c-.32-.34-.57-.76-.74-1.25s-.26-1.03-.26-1.62c0-.78.14-1.46.42-2.05s.7-1.04 1.26-1.36 1.23-.48 2.01-.48c.54 0 1.04.09 1.49.26.46.17.84.42 1.15.74s.55.73.72 1.22.26 1.04.26 1.64-.09 1.14-.26 1.62c-.17.49-.42.91-.73 1.26-.32.35-.7.62-1.16.8s-.95.28-1.49.28zm0-1.51c.5 0 .9-.21 1.21-.63.3-.42.46-1.02.46-1.8 0-.49-.06-.9-.18-1.25-.12-.34-.3-.62-.55-.82s-.56-.31-.93-.31c-.53 0-.94.21-1.23.61-.29.41-.44 1.01-.44 1.8s.15 1.37.45 1.78.7.61 1.22.61z" fill="#3c3c3c"/><path d="m117.17 22.51h24.65l23.5 23.49" fill="none" stroke="#3c3c3c" stroke-miterlimit="10" stroke-width="2"/></svg>